<svg id="Layer_1" data-name="Layer 1" xmlns="http://www.w3.org/2000/svg" viewBox="0 0 512 512"><defs><style>.cls-1{fill:#495875;}.cls-2{fill:#2686ef;}</style></defs><title>gesture-16-filled</title><path class="cls-1" d="M227.56,512H433.78A14.22,14.22,0,0,0,448,497.78V456.2a143,143,0,0,1,8.76-49.35l4.53-12.35a131.51,131.51,0,0,0,8-45.37V292.78c0-22.44-16.92-41.63-38.52-43.69A43.18,43.18,0,0,0,408.43,253c-6.25-13.72-19.21-23.78-34.51-25.24a43.24,43.24,0,0,0-20.11,2.92C349,213.89,334.53,201,317,199.31a43.17,43.17,0,0,0-18.37,2.26V143.44c0-22.44-16.92-41.63-38.52-43.69a42.68,42.68,0,0,0-46.81,42.47v136c-21,2.66-36,11.56-44.45,26.56-23.37,41.29,17,110.88,21.7,118.68q.29.48.61.94c17.16,24.06,22.14,33.74,22.14,51.58v21.84A14.22,14.22,0,0,0,227.56,512ZM193.64,318.74c3.41-6,10-10,19.69-11.78v13a14.22,14.22,0,0,0,28.44,0V142.22a14.23,14.23,0,0,1,15.67-14.15c7.17.68,12.78,7.44,12.78,15.38V256a14.22,14.22,0,0,0,28.44,0V241.78a14.23,14.23,0,0,1,15.67-14.15c7.17.68,12.78,7.44,12.78,15.38v41.44a14.22,14.22,0,0,0,28.44,0V270.22a14.23,14.23,0,0,1,15.67-14.15c7.17.68,12.78,7.44,12.78,15.38v34.33a14.22,14.22,0,0,0,28.44,0V291.56a14.23,14.23,0,0,1,15.67-14.15c7.17.68,12.78,7.44,12.78,15.38v56.35a103.19,103.19,0,0,1-6.31,35.58L430,397.06a171.37,171.37,0,0,0-10.49,59.14v27.35H241.78v-7.62c0-26.54-8.68-41.76-27.09-67.61C200.36,384.19,182.18,339,193.64,318.74Z"/><path class="cls-2" d="M9.5,49c-.13.19-.24.39-.36.59s-.25.4-.36.61-.2.42-.3.63-.2.42-.29.63-.15.42-.23.63-.17.45-.24.69-.11.43-.16.64-.13.47-.17.71-.08.5-.11.74-.07.42-.09.63q-.07.69-.07,1.38v0q0,.69.07,1.38c0,.21.06.42.09.63s.06.5.11.74.11.47.17.71.1.43.16.64.16.46.24.69.14.42.23.63.19.42.29.63.19.42.3.63.24.4.36.6.23.4.36.59.33.46.5.68.21.29.32.43a14.31,14.31,0,0,0,1,1.07l42.65,42.65A14.22,14.22,0,1,0,74.06,89.5L55.67,71.11h79.44a14.22,14.22,0,1,0,0-28.44H55.67L74.06,24.28A14.22,14.22,0,0,0,53.94,4.17L11.3,46.82a14.32,14.32,0,0,0-1,1.07c-.11.14-.21.29-.32.43S9.66,48.76,9.5,49Z"/><path class="cls-2" d="M502.5,64.78c.13-.19.24-.39.36-.59s.25-.4.36-.6.2-.42.3-.63.2-.42.29-.63.15-.42.23-.63.17-.45.24-.69.11-.43.16-.64.13-.47.17-.71.08-.49.11-.74.07-.42.09-.63a14.31,14.31,0,0,0,0-2.81c0-.21-.06-.42-.09-.63s-.06-.5-.11-.74-.11-.47-.17-.71-.1-.43-.16-.64-.16-.46-.24-.69-.14-.42-.23-.63-.19-.42-.29-.63-.19-.42-.3-.63-.24-.4-.36-.61-.23-.39-.36-.59-.33-.46-.51-.69-.21-.29-.32-.43a14.32,14.32,0,0,0-1-1.07L458.06,4.17a14.22,14.22,0,0,0-20.11,20.11l18.39,18.39H376.89a14.22,14.22,0,1,0,0,28.44h79.44L437.94,89.5a14.22,14.22,0,1,0,20.11,20.11L500.7,67a14.31,14.31,0,0,0,1-1.07c.11-.14.21-.29.32-.43S502.34,65,502.5,64.78Z"/><path class="cls-2" d="M156.44,142.22a14.22,14.22,0,1,0,28.44,0,71.11,71.11,0,1,1,142.22,0,14.22,14.22,0,1,0,28.44,0,99.56,99.56,0,1,0-199.11,0Z"/></svg>